<svg width="448" height="406" viewBox="0 0 448 406" fill="none" xmlns="http://www.w3.org/2000/svg">
<path d="M444.5 203.625C454.5 137.625 441 94.6252 414 55.1253C387 15.6253 303 -16.3748 249.5 9.12527C196 34.6254 174 50.1253 112.5 52.6253C51 55.1253 1 105.125 1 105.125V405.125C1 405.125 91 402.625 128.5 374.625C166 346.625 149.5 314.625 214.5 300.125C279.5 285.625 429.5 314.125 444.5 203.625Z" fill="#00FF9C"/>
<path d="M421.5 196C430.923 133.767 423.812 104.957 403.156 63.9787C382.5 22.9999 306.911 -13.0445 256.5 11C206.089 35.0445 187.5 73.4574 114.5 63.9787C41.5 54.5 0 125 0 125V394C0 394 98.804 391.643 134.139 365.241C169.474 338.839 153.927 308.666 215.174 294.994C276.421 281.321 407.366 300.193 421.5 196Z" fill="white"/>
</svg>
