<svg width="430" height="119" viewBox="0 0 430 119" fill="none" xmlns="http://www.w3.org/2000/svg">
<path d="M26.4 113.77C21.56 113.77 17.5633 112.853 14.41 111.02C11.2567 109.187 8.91 106.693 7.37 103.54C5.83 100.387 5.06 96.83 5.06 92.87V81.21C5.06 77.25 5.79333 73.6933 7.26 70.54C8.8 67.3867 11.1467 64.8933 14.3 63.06C17.5267 61.2267 21.56 60.31 26.4 60.31C29.48 60.31 32.1567 60.7133 34.43 61.52C36.7767 62.2533 38.5733 63.17 39.82 64.27C41.14 65.37 41.8 66.4333 41.8 67.46C41.8 67.9733 41.6533 68.5233 41.36 69.11C41.14 69.6233 40.7733 70.0633 40.26 70.43C39.82 70.7967 39.3067 70.98 38.72 70.98C38.06 70.98 37.29 70.65 36.41 69.99C35.6033 69.2567 34.4667 68.56 33 67.9C31.5333 67.24 29.4433 66.91 26.73 66.91C21.9633 66.91 18.3333 68.1933 15.84 70.76C13.42 73.2533 12.21 76.7367 12.21 81.21V92.87C12.21 97.3433 13.42 100.863 15.84 103.43C18.3333 105.923 22 107.17 26.84 107.17C29.6267 107.17 31.79 106.84 33.33 106.18C34.87 105.447 36.0433 104.75 36.85 104.09C37.73 103.357 38.5367 102.99 39.27 102.99C39.93 102.99 40.48 103.173 40.92 103.54C41.4333 103.907 41.8 104.347 42.02 104.86C42.3133 105.373 42.46 105.923 42.46 106.51C42.46 107.463 41.8 108.527 40.48 109.7C39.16 110.8 37.29 111.753 34.87 112.56C32.5233 113.367 29.7 113.77 26.4 113.77ZM70.4275 113.77C66.6875 113.77 63.2408 112.817 60.0875 110.91C56.9342 108.93 54.3675 106.363 52.3875 103.21C50.4808 99.9833 49.5275 96.5367 49.5275 92.87V80.99C49.5275 77.25 50.4442 73.84 52.2775 70.76C54.1842 67.6067 56.7142 65.0767 59.8675 63.17C63.0942 61.2633 66.6142 60.31 70.4275 60.31C74.1675 60.31 77.6142 61.2633 80.7675 63.17C83.9942 65.0033 86.5608 67.46 88.4675 70.54C90.3742 73.62 91.3275 77.1033 91.3275 80.99V92.87C91.3275 96.4633 90.3742 99.8733 88.4675 103.1C86.5608 106.327 83.9942 108.93 80.7675 110.91C77.6142 112.817 74.1675 113.77 70.4275 113.77ZM70.4275 107.17C72.9942 107.17 75.3042 106.51 77.3575 105.19C79.4108 103.797 81.0608 102 82.3075 99.8C83.5542 97.6 84.1775 95.29 84.1775 92.87V80.99C84.1775 78.57 83.5542 76.2967 82.3075 74.17C81.1342 72.0433 79.4842 70.32 77.3575 69C75.3042 67.6067 72.9942 66.91 70.4275 66.91C67.8608 66.91 65.5508 67.6067 63.4975 69C61.4442 70.32 59.7942 72.0433 58.5475 74.17C57.3008 76.2967 56.6775 78.57 56.6775 80.99V92.87C56.6775 95.29 57.3008 97.6 58.5475 99.8C59.7942 102 61.4442 103.797 63.4975 105.19C65.6242 106.51 67.9342 107.17 70.4275 107.17ZM106.59 113C105.637 113 104.793 112.707 104.06 112.12C103.4 111.533 103.07 110.873 103.07 110.14V63.72C103.07 62.84 103.4 62.18 104.06 61.74C104.793 61.2267 105.637 60.97 106.59 60.97C107.543 60.97 108.35 61.2267 109.01 61.74C109.67 62.18 110 62.84 110 63.72V68.67C111.173 66.5433 113.007 64.6367 115.5 62.95C117.993 61.19 121.073 60.31 124.74 60.31C128.26 60.31 131.487 61.2633 134.42 63.17C137.427 65.0033 139.81 67.4967 141.57 70.65C143.33 73.73 144.21 77.1767 144.21 80.99V110.14C144.21 111.093 143.843 111.827 143.11 112.34C142.377 112.78 141.533 113 140.58 113C139.773 113 138.967 112.78 138.16 112.34C137.427 111.827 137.06 111.093 137.06 110.14V80.99C137.06 78.57 136.437 76.2967 135.19 74.17C133.943 72.0433 132.293 70.32 130.24 69C128.187 67.6067 125.913 66.91 123.42 66.91C121.22 66.91 119.093 67.4967 117.04 68.67C115.06 69.77 113.41 71.3467 112.09 73.4C110.843 75.4533 110.22 77.9833 110.22 80.99V110.14C110.22 110.873 109.853 111.533 109.12 112.12C108.46 112.707 107.617 113 106.59 113ZM172.954 113.88C172.147 113.88 171.45 113.733 170.864 113.44C170.277 113.147 169.874 112.707 169.654 112.12L151.944 65.7C151.797 65.5533 151.65 65.2967 151.504 64.93C151.43 64.5633 151.394 64.27 151.394 64.05C151.394 63.4633 151.614 62.9133 152.054 62.4C152.567 61.8867 153.154 61.4833 153.814 61.19C154.547 60.8967 155.207 60.75 155.794 60.75C156.38 60.75 156.894 60.8967 157.334 61.19C157.847 61.41 158.214 61.8133 158.434 62.4L172.954 102L187.474 62.84C187.62 62.2533 187.877 61.7767 188.244 61.41C188.61 60.97 189.197 60.75 190.004 60.75C190.59 60.75 191.214 60.8967 191.874 61.19C192.534 61.4833 193.12 61.8867 193.634 62.4C194.147 62.84 194.404 63.39 194.404 64.05C194.404 64.3433 194.367 64.6733 194.294 65.04C194.22 65.3333 194.11 65.5533 193.964 65.7L176.254 112.12C176.034 112.633 175.594 113.037 174.934 113.33C174.347 113.697 173.687 113.88 172.954 113.88ZM224.538 113.77C219.918 113.77 215.811 112.89 212.218 111.13C208.698 109.37 205.911 106.95 203.858 103.87C201.878 100.717 200.888 97.05 200.888 92.87V80.66C200.888 76.9933 201.841 73.62 203.748 70.54C205.654 67.3867 208.184 64.8933 211.338 63.06C214.564 61.2267 218.084 60.31 221.898 60.31C225.564 60.31 228.938 61.19 232.018 62.95C235.171 64.6367 237.701 66.9833 239.608 69.99C241.514 72.9967 242.468 76.48 242.468 80.44C242.468 83.2267 241.991 85.2433 241.038 86.49C240.084 87.7367 238.874 88.5067 237.408 88.8C236.014 89.02 234.511 89.13 232.898 89.13H208.038V93.2C208.038 97.6 209.614 101.083 212.768 103.65C215.921 106.217 219.918 107.5 224.758 107.5C227.691 107.5 229.964 107.133 231.578 106.4C233.191 105.667 234.438 104.933 235.318 104.2C236.271 103.467 237.151 103.1 237.958 103.1C238.544 103.1 239.058 103.32 239.498 103.76C240.011 104.127 240.378 104.567 240.598 105.08C240.891 105.593 241.038 106.07 241.038 106.51C241.038 107.317 240.378 108.307 239.058 109.48C237.738 110.653 235.831 111.68 233.338 112.56C230.844 113.367 227.911 113.77 224.538 113.77ZM208.038 83.85H230.038C232.238 83.85 233.704 83.63 234.438 83.19C235.171 82.6767 235.538 81.65 235.538 80.11C235.538 77.7633 234.951 75.5633 233.778 73.51C232.604 71.3833 230.991 69.66 228.938 68.34C226.884 66.9467 224.501 66.25 221.788 66.25C219.294 66.25 216.984 66.8733 214.858 68.12C212.804 69.3667 211.154 70.98 209.908 72.96C208.661 74.94 208.038 77.1767 208.038 79.67V83.85ZM256.658 113C255.705 113 254.862 112.707 254.128 112.12C253.468 111.533 253.138 110.873 253.138 110.14V63.72C253.138 62.84 253.468 62.18 254.128 61.74C254.862 61.2267 255.705 60.97 256.658 60.97C257.612 60.97 258.418 61.2267 259.078 61.74C259.738 62.18 260.068 62.84 260.068 63.72V69.11C260.875 67.57 261.975 66.14 263.368 64.82C264.762 63.5 266.412 62.4367 268.318 61.63C270.225 60.75 272.388 60.31 274.808 60.31H278.658C279.465 60.31 280.125 60.64 280.638 61.3C281.225 61.96 281.518 62.73 281.518 63.61C281.518 64.5633 281.225 65.37 280.638 66.03C280.125 66.6167 279.465 66.91 278.658 66.91H274.808C272.388 66.91 270.042 67.57 267.768 68.89C265.568 70.21 263.772 72.0433 262.378 74.39C260.985 76.7367 260.288 79.5967 260.288 82.97V110.14C260.288 110.873 259.922 111.533 259.188 112.12C258.528 112.707 257.685 113 256.658 113Z" fill="#6256CA"/>
<path d="M312.598 5H291.994C289.233 5 287 7.23858 287 10V110C287 112.761 289.239 115 292 115H314.204C316.884 115 319.088 112.886 319.2 110.208L319.92 92.9272C319.971 91.687 319.546 90.4809 318.812 89.4798C310 77.4636 310 60 310 60C310 60 310 44.3683 317.054 33.3847C317.642 32.4689 317.989 31.4112 317.969 30.323L317.591 9.90742C317.54 7.18255 315.323 5 312.598 5Z" fill="#00FF9C"/>
<circle cx="375" cy="60" r="55" fill="#00FF9C"/>
<circle cx="375" cy="60" r="32" fill="white"/>
<path d="M416.557 115H407.255C405.72 115 404.27 114.295 403.322 113.087L381.347 85.087C378.772 81.8059 381.109 77 385.28 77H394.018C395.532 77 396.964 77.6857 397.913 78.8648L420.452 106.865C423.085 110.136 420.756 115 416.557 115Z" fill="#00FF9C"/>
</svg>
